<svg version="1.1" xmlns="http://www.w3.org/2000/svg" xmlns:xlink="http://www.w3.org/1999/xlink" x="0px" y="0px" width="64px"
	 height="64px" viewBox="0 0 64 64" style="overflow:visible;enable-background:new 0 0 64 64;" xml:space="preserve">
<style type="text/css">
	.st0{fill:#1A345B;}
	.st1{fill:#D12228;}
	.st2{fill:#FFFFFF;}
</style>
<defs>
</defs>
<rect class="st0" width="64" height="64"/>
<g>
	<polygon class="st1" points="64,1.98 64,13.67 55.45,19.37 51.83,21.78 34.29,21.78 37.72,19.49 40.22,17.83 42.72,16.16 	"/>
	<path class="st2" d="M62.45,0L42.72,13.15l-2.5,1.67l-0.45,0.3l-2.05,1.37l-9.73,6.48l-1.71,1.14l-0.25,0.17h26.56l1.26-0.84
		l2.35-1.57l3.75-2.5l4.05-2.7v-6.01l-12.93,8.62h-8.53l0.18-0.12L64,4.98V0H62.45z"/>
</g>
<g>
	<polygon class="st1" points="21.69,21.78 4.15,21.78 0,19.01 0,7.32 	"/>
	<path class="st2" d="M27.99,22.97l-1.71-1.14l-2.5-1.67l-2.5-1.66l-5.07-3.38L0,4.31v6.01l13.44,8.96H4.9L0,16.01v6.01l2.13,1.42
		l1.26,0.84h26.56L27.99,22.97z"/>
</g>
<g>
	<polygon class="st1" points="64,44.33 64,56.03 46.91,44.63 43.29,42.22 60.83,42.22 	"/>
	<path class="st2" d="M62.85,40.56l-1.26-0.84H35.03l2.69,1.79l5,3.34l6.05,4.03L64,59.03v-6l-12.46-8.31h8.53L64,47.34v-6.01
		L62.85,40.56z"/>
</g>
<g>
	<polygon class="st1" points="20.69,42.22 17.07,44.63 0,56.01 0,44.32 3.15,42.22 	"/>
	<path class="st2" d="M2.39,39.72l-1.26,0.84L0,41.31v6.01l3.9-2.6h8.54L0,53.01v6.01l15.21-10.14l6.07-4.05l2.5-1.66l2.5-1.67
		l2.67-1.78H2.39z"/>
</g>
<g>
	<polygon class="st1" points="64,21.87 64,42.13 40.22,42.13 40.22,64 23.78,64 23.78,42.13 0,42.13 0,21.87 23.78,21.87 23.78,0 
		40.22,0 40.22,21.87 	"/>
	<path class="st2" d="M21.28,0v19.37H0v5h26.28V0H21.28z M42.72,19.37V0h-5v24.37H64v-5H42.72z M37.72,39.63V64h5V44.63H64v-5H37.72
		z M0,44.63h21.28V64h5V39.63H0V44.63z"/>
</g>
</svg>
